<mxfile host="app.diagrams.net" modified="2021-04-17T14:04:02.694Z" agent="5.0 (Windows NT 10.0; Win64; x64) AppleWebKit/537.36 (KHTML, like Gecko) Chrome/90.0.4430.72 Safari/537.36 Edg/90.0.818.39" etag="NpT0oRr3jlr754tssPvQ" version="14.5.3" type="github">
  <diagram id="5eOtDX8AbM0DL3pFRIn1" name="Page-1">
    <mxGraphModel dx="1038" dy="580" grid="1" gridSize="10" guides="1" tooltips="1" connect="1" arrows="1" fold="1" page="1" pageScale="1" pageWidth="850" pageHeight="1100" math="0" shadow="0">
      <root>
        <mxCell id="0" />
        <mxCell id="1" parent="0" />
        <mxCell id="4l5nySt9rV1LjqvCiGXe-9" value="" style="edgeStyle=orthogonalEdgeStyle;rounded=0;orthogonalLoop=1;jettySize=auto;html=1;" edge="1" parent="1" source="4l5nySt9rV1LjqvCiGXe-1" target="4l5nySt9rV1LjqvCiGXe-2">
          <mxGeometry relative="1" as="geometry" />
        </mxCell>
        <mxCell id="4l5nySt9rV1LjqvCiGXe-1" value="Actual/Production Data" style="rounded=1;whiteSpace=wrap;html=1;" vertex="1" parent="1">
          <mxGeometry x="150" y="150" width="100" height="30" as="geometry" />
        </mxCell>
        <mxCell id="4l5nySt9rV1LjqvCiGXe-11" value="" style="edgeStyle=orthogonalEdgeStyle;rounded=0;orthogonalLoop=1;jettySize=auto;html=1;" edge="1" parent="1" source="4l5nySt9rV1LjqvCiGXe-2" target="4l5nySt9rV1LjqvCiGXe-6">
          <mxGeometry relative="1" as="geometry">
            <Array as="points">
              <mxPoint x="330" y="200" />
              <mxPoint x="330" y="200" />
            </Array>
          </mxGeometry>
        </mxCell>
        <mxCell id="4l5nySt9rV1LjqvCiGXe-26" value="" style="edgeStyle=none;rounded=0;orthogonalLoop=1;jettySize=auto;html=1;" edge="1" parent="1" source="4l5nySt9rV1LjqvCiGXe-2" target="4l5nySt9rV1LjqvCiGXe-24">
          <mxGeometry relative="1" as="geometry" />
        </mxCell>
        <mxCell id="4l5nySt9rV1LjqvCiGXe-2" value="Model Development" style="rounded=1;whiteSpace=wrap;html=1;" vertex="1" parent="1">
          <mxGeometry x="300" y="150" width="100" height="30" as="geometry" />
        </mxCell>
        <mxCell id="4l5nySt9rV1LjqvCiGXe-3" value="CPU" style="rounded=1;whiteSpace=wrap;html=1;" vertex="1" parent="1">
          <mxGeometry x="270" y="220" width="40" height="30" as="geometry" />
        </mxCell>
        <mxCell id="4l5nySt9rV1LjqvCiGXe-4" value="GPU" style="rounded=1;whiteSpace=wrap;html=1;" vertex="1" parent="1">
          <mxGeometry x="340" y="220" width="40" height="30" as="geometry" />
        </mxCell>
        <mxCell id="4l5nySt9rV1LjqvCiGXe-5" value="FPGA" style="rounded=1;whiteSpace=wrap;html=1;" vertex="1" parent="1">
          <mxGeometry x="405" y="220" width="40" height="30" as="geometry" />
        </mxCell>
        <mxCell id="4l5nySt9rV1LjqvCiGXe-6" value="Others" style="rounded=1;whiteSpace=wrap;html=1;" vertex="1" parent="1">
          <mxGeometry x="310" y="260" width="40" height="30" as="geometry" />
        </mxCell>
        <mxCell id="4l5nySt9rV1LjqvCiGXe-10" value="" style="edgeStyle=orthogonalEdgeStyle;rounded=0;orthogonalLoop=1;jettySize=auto;html=1;" edge="1" parent="1" source="4l5nySt9rV1LjqvCiGXe-7" target="4l5nySt9rV1LjqvCiGXe-2">
          <mxGeometry relative="1" as="geometry" />
        </mxCell>
        <mxCell id="4l5nySt9rV1LjqvCiGXe-7" value="Data Scientists" style="rounded=1;whiteSpace=wrap;html=1;" vertex="1" parent="1">
          <mxGeometry x="300" y="79" width="100" height="30" as="geometry" />
        </mxCell>
        <mxCell id="4l5nySt9rV1LjqvCiGXe-12" value="" style="endArrow=classic;html=1;exitX=0.108;exitY=1.073;exitDx=0;exitDy=0;exitPerimeter=0;entryX=0.5;entryY=0;entryDx=0;entryDy=0;" edge="1" parent="1" source="4l5nySt9rV1LjqvCiGXe-2" target="4l5nySt9rV1LjqvCiGXe-3">
          <mxGeometry width="50" height="50" relative="1" as="geometry">
            <mxPoint x="400" y="330" as="sourcePoint" />
            <mxPoint x="450" y="280" as="targetPoint" />
          </mxGeometry>
        </mxCell>
        <mxCell id="4l5nySt9rV1LjqvCiGXe-13" value="" style="endArrow=classic;html=1;exitX=0.604;exitY=1.1;exitDx=0;exitDy=0;exitPerimeter=0;entryX=0.5;entryY=0;entryDx=0;entryDy=0;" edge="1" parent="1" source="4l5nySt9rV1LjqvCiGXe-2" target="4l5nySt9rV1LjqvCiGXe-4">
          <mxGeometry width="50" height="50" relative="1" as="geometry">
            <mxPoint x="320.79999999999995" y="192.19000000000005" as="sourcePoint" />
            <mxPoint x="300" y="230" as="targetPoint" />
          </mxGeometry>
        </mxCell>
        <mxCell id="4l5nySt9rV1LjqvCiGXe-14" value="" style="endArrow=classic;html=1;exitX=0.836;exitY=1.1;exitDx=0;exitDy=0;exitPerimeter=0;entryX=0.5;entryY=0;entryDx=0;entryDy=0;" edge="1" parent="1" source="4l5nySt9rV1LjqvCiGXe-2" target="4l5nySt9rV1LjqvCiGXe-5">
          <mxGeometry width="50" height="50" relative="1" as="geometry">
            <mxPoint x="330.79999999999995" y="202.19000000000005" as="sourcePoint" />
            <mxPoint x="310" y="240" as="targetPoint" />
          </mxGeometry>
        </mxCell>
        <mxCell id="4l5nySt9rV1LjqvCiGXe-17" value="" style="endArrow=classic;html=1;exitX=0;exitY=1;exitDx=0;exitDy=0;entryX=1;entryY=1;entryDx=0;entryDy=0;" edge="1" parent="1" source="4l5nySt9rV1LjqvCiGXe-2" target="4l5nySt9rV1LjqvCiGXe-1">
          <mxGeometry width="50" height="50" relative="1" as="geometry">
            <mxPoint x="200" y="150" as="sourcePoint" />
            <mxPoint x="250" y="100" as="targetPoint" />
          </mxGeometry>
        </mxCell>
        <mxCell id="4l5nySt9rV1LjqvCiGXe-20" value="" style="edgeStyle=none;rounded=0;orthogonalLoop=1;jettySize=auto;html=1;" edge="1" parent="1" source="4l5nySt9rV1LjqvCiGXe-19" target="4l5nySt9rV1LjqvCiGXe-7">
          <mxGeometry relative="1" as="geometry" />
        </mxCell>
        <mxCell id="4l5nySt9rV1LjqvCiGXe-19" value="" style="shadow=0;dashed=0;html=1;strokeColor=none;fillColor=#4495D1;labelPosition=center;verticalLabelPosition=bottom;verticalAlign=top;align=center;outlineConnect=0;shape=mxgraph.veeam.time;" vertex="1" parent="1">
          <mxGeometry x="445" y="71.6" width="44.8" height="44.8" as="geometry" />
        </mxCell>
        <mxCell id="4l5nySt9rV1LjqvCiGXe-21" value="" style="dashed=0;outlineConnect=0;html=1;align=center;labelPosition=center;verticalLabelPosition=bottom;verticalAlign=top;shape=mxgraph.weblogos.github" vertex="1" parent="1">
          <mxGeometry x="743" y="144" width="40" height="42" as="geometry" />
        </mxCell>
        <mxCell id="4l5nySt9rV1LjqvCiGXe-23" value="GitHub" style="text;html=1;strokeColor=none;fillColor=none;align=center;verticalAlign=middle;whiteSpace=wrap;rounded=0;" vertex="1" parent="1">
          <mxGeometry x="743" y="190" width="40" height="20" as="geometry" />
        </mxCell>
        <mxCell id="4l5nySt9rV1LjqvCiGXe-30" value="" style="edgeStyle=none;rounded=0;orthogonalLoop=1;jettySize=auto;html=1;" edge="1" parent="1" source="4l5nySt9rV1LjqvCiGXe-24" target="4l5nySt9rV1LjqvCiGXe-29">
          <mxGeometry relative="1" as="geometry" />
        </mxCell>
        <mxCell id="4l5nySt9rV1LjqvCiGXe-24" value="Auto Train" style="rounded=1;whiteSpace=wrap;html=1;" vertex="1" parent="1">
          <mxGeometry x="445" y="150" width="60" height="30" as="geometry" />
        </mxCell>
        <mxCell id="4l5nySt9rV1LjqvCiGXe-28" value="" style="edgeStyle=none;rounded=0;orthogonalLoop=1;jettySize=auto;html=1;" edge="1" parent="1" source="4l5nySt9rV1LjqvCiGXe-25" target="4l5nySt9rV1LjqvCiGXe-21">
          <mxGeometry relative="1" as="geometry" />
        </mxCell>
        <mxCell id="4l5nySt9rV1LjqvCiGXe-25" value="Score" style="rounded=1;whiteSpace=wrap;html=1;" vertex="1" parent="1">
          <mxGeometry x="635" y="150" width="60" height="30" as="geometry" />
        </mxCell>
        <mxCell id="4l5nySt9rV1LjqvCiGXe-32" value="" style="edgeStyle=none;rounded=0;orthogonalLoop=1;jettySize=auto;html=1;" edge="1" parent="1" source="4l5nySt9rV1LjqvCiGXe-29" target="4l5nySt9rV1LjqvCiGXe-25">
          <mxGeometry relative="1" as="geometry" />
        </mxCell>
        <mxCell id="4l5nySt9rV1LjqvCiGXe-29" value="Model File" style="rounded=1;whiteSpace=wrap;html=1;" vertex="1" parent="1">
          <mxGeometry x="540" y="150" width="60" height="30" as="geometry" />
        </mxCell>
        <mxCell id="4l5nySt9rV1LjqvCiGXe-33" value="Time Consuming" style="text;html=1;strokeColor=none;fillColor=none;align=center;verticalAlign=middle;whiteSpace=wrap;rounded=0;" vertex="1" parent="1">
          <mxGeometry x="418" y="51.6" width="95" height="20" as="geometry" />
        </mxCell>
        <mxCell id="4l5nySt9rV1LjqvCiGXe-34" value="" style="dashed=0;outlineConnect=0;html=1;align=center;labelPosition=center;verticalLabelPosition=bottom;verticalAlign=top;shape=mxgraph.weblogos.github" vertex="1" parent="1">
          <mxGeometry x="120" y="440" width="40" height="42" as="geometry" />
        </mxCell>
        <mxCell id="4l5nySt9rV1LjqvCiGXe-35" value="GitHub" style="text;html=1;strokeColor=none;fillColor=none;align=center;verticalAlign=middle;whiteSpace=wrap;rounded=0;" vertex="1" parent="1">
          <mxGeometry x="120" y="486" width="40" height="20" as="geometry" />
        </mxCell>
        <mxCell id="4l5nySt9rV1LjqvCiGXe-36" value="" style="edgeStyle=none;rounded=0;orthogonalLoop=1;jettySize=auto;html=1;" edge="1" parent="1" source="4l5nySt9rV1LjqvCiGXe-37" target="4l5nySt9rV1LjqvCiGXe-40">
          <mxGeometry relative="1" as="geometry" />
        </mxCell>
        <mxCell id="4l5nySt9rV1LjqvCiGXe-45" value="" style="edgeStyle=none;rounded=0;orthogonalLoop=1;jettySize=auto;html=1;" edge="1" parent="1" source="4l5nySt9rV1LjqvCiGXe-37" target="4l5nySt9rV1LjqvCiGXe-44">
          <mxGeometry relative="1" as="geometry" />
        </mxCell>
        <mxCell id="4l5nySt9rV1LjqvCiGXe-46" value="" style="edgeStyle=none;rounded=0;orthogonalLoop=1;jettySize=auto;html=1;" edge="1" parent="1" source="4l5nySt9rV1LjqvCiGXe-37" target="4l5nySt9rV1LjqvCiGXe-44">
          <mxGeometry relative="1" as="geometry" />
        </mxCell>
        <mxCell id="4l5nySt9rV1LjqvCiGXe-37" value="Auto Train" style="rounded=1;whiteSpace=wrap;html=1;" vertex="1" parent="1">
          <mxGeometry x="205" y="456" width="60" height="30" as="geometry" />
        </mxCell>
        <mxCell id="4l5nySt9rV1LjqvCiGXe-38" value="Score" style="rounded=1;whiteSpace=wrap;html=1;" vertex="1" parent="1">
          <mxGeometry x="395" y="456" width="60" height="30" as="geometry" />
        </mxCell>
        <mxCell id="4l5nySt9rV1LjqvCiGXe-39" value="" style="edgeStyle=none;rounded=0;orthogonalLoop=1;jettySize=auto;html=1;" edge="1" parent="1" source="4l5nySt9rV1LjqvCiGXe-40" target="4l5nySt9rV1LjqvCiGXe-38">
          <mxGeometry relative="1" as="geometry" />
        </mxCell>
        <mxCell id="4l5nySt9rV1LjqvCiGXe-40" value="Model File" style="rounded=1;whiteSpace=wrap;html=1;" vertex="1" parent="1">
          <mxGeometry x="300" y="456" width="60" height="30" as="geometry" />
        </mxCell>
        <mxCell id="4l5nySt9rV1LjqvCiGXe-41" value="CPU" style="rounded=1;whiteSpace=wrap;html=1;" vertex="1" parent="1">
          <mxGeometry x="150" y="520" width="40" height="30" as="geometry" />
        </mxCell>
        <mxCell id="4l5nySt9rV1LjqvCiGXe-42" value="GPU" style="rounded=1;whiteSpace=wrap;html=1;" vertex="1" parent="1">
          <mxGeometry x="220" y="520" width="40" height="30" as="geometry" />
        </mxCell>
        <mxCell id="4l5nySt9rV1LjqvCiGXe-43" value="FPGA" style="rounded=1;whiteSpace=wrap;html=1;" vertex="1" parent="1">
          <mxGeometry x="285" y="520" width="40" height="30" as="geometry" />
        </mxCell>
        <mxCell id="4l5nySt9rV1LjqvCiGXe-44" value="Others" style="rounded=1;whiteSpace=wrap;html=1;" vertex="1" parent="1">
          <mxGeometry x="190" y="560" width="40" height="30" as="geometry" />
        </mxCell>
        <mxCell id="4l5nySt9rV1LjqvCiGXe-48" value="" style="endArrow=classic;html=1;entryX=0.5;entryY=0;entryDx=0;entryDy=0;exitX=1;exitY=1;exitDx=0;exitDy=0;" edge="1" parent="1" source="4l5nySt9rV1LjqvCiGXe-37" target="4l5nySt9rV1LjqvCiGXe-43">
          <mxGeometry width="50" height="50" relative="1" as="geometry">
            <mxPoint x="250" y="520" as="sourcePoint" />
            <mxPoint x="300" y="470" as="targetPoint" />
          </mxGeometry>
        </mxCell>
        <mxCell id="4l5nySt9rV1LjqvCiGXe-49" value="" style="endArrow=classic;html=1;exitX=0;exitY=1;exitDx=0;exitDy=0;entryX=0.5;entryY=0;entryDx=0;entryDy=0;" edge="1" parent="1" source="4l5nySt9rV1LjqvCiGXe-37" target="4l5nySt9rV1LjqvCiGXe-41">
          <mxGeometry width="50" height="50" relative="1" as="geometry">
            <mxPoint x="170" y="540" as="sourcePoint" />
            <mxPoint x="210" y="530" as="targetPoint" />
          </mxGeometry>
        </mxCell>
        <mxCell id="4l5nySt9rV1LjqvCiGXe-50" value="" style="endArrow=classic;html=1;entryX=0.5;entryY=0;entryDx=0;entryDy=0;" edge="1" parent="1" target="4l5nySt9rV1LjqvCiGXe-42">
          <mxGeometry width="50" height="50" relative="1" as="geometry">
            <mxPoint x="240" y="490" as="sourcePoint" />
            <mxPoint x="180" y="530" as="targetPoint" />
          </mxGeometry>
        </mxCell>
        <mxCell id="4l5nySt9rV1LjqvCiGXe-51" value="REST API" style="rounded=1;whiteSpace=wrap;html=1;" vertex="1" parent="1">
          <mxGeometry x="489.8" y="410" width="60" height="30" as="geometry" />
        </mxCell>
        <mxCell id="4l5nySt9rV1LjqvCiGXe-52" value="Docker Container" style="rounded=1;whiteSpace=wrap;html=1;" vertex="1" parent="1">
          <mxGeometry x="580" y="410" width="60" height="30" as="geometry" />
        </mxCell>
        <mxCell id="4l5nySt9rV1LjqvCiGXe-53" value="Container Orchestration" style="rounded=1;whiteSpace=wrap;html=1;" vertex="1" parent="1">
          <mxGeometry x="670" y="410" width="80" height="30" as="geometry" />
        </mxCell>
        <mxCell id="4l5nySt9rV1LjqvCiGXe-54" value="Batch Score" style="rounded=1;whiteSpace=wrap;html=1;" vertex="1" parent="1">
          <mxGeometry x="489.8" y="500" width="60" height="30" as="geometry" />
        </mxCell>
        <mxCell id="4l5nySt9rV1LjqvCiGXe-55" value="Storage" style="rounded=1;whiteSpace=wrap;html=1;" vertex="1" parent="1">
          <mxGeometry x="580" y="500" width="60" height="30" as="geometry" />
        </mxCell>
        <mxCell id="4l5nySt9rV1LjqvCiGXe-56" value="Clients" style="rounded=1;whiteSpace=wrap;html=1;" vertex="1" parent="1">
          <mxGeometry x="780" y="410" width="60" height="30" as="geometry" />
        </mxCell>
        <mxCell id="4l5nySt9rV1LjqvCiGXe-57" value="Clients" style="rounded=1;whiteSpace=wrap;html=1;" vertex="1" parent="1">
          <mxGeometry x="670" y="500" width="60" height="30" as="geometry" />
        </mxCell>
      </root>
    </mxGraphModel>
  </diagram>
</mxfile>
